<svg width="8" height="17" viewBox="0 0 8 17" fill="none" xmlns="http://www.w3.org/2000/svg">
<path d="M3.67772 12.9549C4.0827 11.9412 7.47117 6.83058 5.12989 5.42395C3.82264 4.63838 2.00287 5.14466 0.610952 6.07117L0.516415 6.95334C1.33834 6.67406 2.18035 6.67406 2.43297 7.33894C3.04781 8.9563 0.94322 11.7879 0.367856 13.2708C-1.19306 17.2936 2.55382 17.7589 5.22668 16.1008L5.32884 15.1464C3.87458 15.5416 2.83709 15.0566 3.67772 12.9549Z" fill="#FFE6BA"/>
<path d="M5.21905 3.7545C6.25582 3.7545 7.0963 2.91403 7.0963 1.87725C7.0963 0.840473 6.25582 0 5.21905 0C4.18227 0 3.3418 0.840473 3.3418 1.87725C3.3418 2.91403 4.18227 3.7545 5.21905 3.7545Z" fill="#FFE6BA"/>
</svg>
