<svg width="92" height="27" viewBox="0 0 92 27" fill="none" xmlns="http://www.w3.org/2000/svg">
<path d="M91.5516 15.1306L82.3475 26.3208C82.0518 26.6789 81.6821 26.8579 81.3125 26.8579C80.9428 26.8579 80.5732 26.6789 80.2775 26.3208C79.6861 25.6046 79.6861 24.4856 80.2775 23.7694L86.968 15.6229H65.3809C64.5677 15.6229 63.9023 14.8173 63.9023 13.8325C63.9023 12.8478 64.5677 12.0421 65.3809 12.0421H86.968L80.2775 3.89563C79.6861 3.17946 79.6861 2.06043 80.2775 1.34426C80.8689 0.628086 81.793 0.628086 82.3845 1.34426L91.5885 12.5345C92.143 13.2954 92.143 14.4592 91.5516 15.1306Z" fill="#BC2934"/>
<rect x="0.314453" y="11.6396" width="88.7142" height="4.47607" rx="2.23804" fill="#BC2934"/>
</svg>
